<svg xmlns="http://www.w3.org/2000/svg" xmlns:xlink="http://www.w3.org/1999/xlink" version="1.1" x="0px" y="0px" viewBox="0 0 100 125" style="enable-background:new 0 0 100 100;" xml:space="preserve"><path d="M88.241,71.125L78.187,91.233c-0.215,0.429-0.729,0.615-1.168,0.421l-5.275-2.326c-0.422-0.186-0.635-0.662-0.493-1.101  L77.803,68l-8.4-12h-4.049c0.73-1.862,1.146-3.882,1.146-6s-0.416-4.138-1.146-6h6.887c3.409,0,6.525,1.926,8.05,4.975l7.95,15.9  C89.224,66.842,89.224,69.157,88.241,71.125z"/><path d="M30.597,56l-8.4,12l6.553,20.227c0.142,0.439-0.071,0.915-0.493,1.101l-5.275,2.326c-0.439,0.194-0.953,0.008-1.168-0.421  L11.759,71.125c-0.983-1.967-0.983-4.282,0-6.249l7.95-15.9C21.234,45.926,24.35,44,27.759,44h6.887  c-0.73,1.862-1.146,3.882-1.146,6s0.416,4.138,1.146,6H30.597z"/><path d="M50,38c-6.628,0-12,5.372-12,12c0,6.627,5.372,12,12,12s12-5.373,12-12C62,43.372,56.628,38,50,38z M50,54.5  c-2.485,0-4.5-2.015-4.5-4.5s2.015-4.5,4.5-4.5s4.5,2.015,4.5,4.5S52.485,54.5,50,54.5z"/><path d="M56,29v5.646c-1.862-0.73-3.882-1.146-6-1.146s-4.138,0.416-6,1.146V29H56z"/><path d="M56,14v6h2.1c0.497,0,0.9,0.403,0.9,0.9v2.7c0,0.497-0.403,0.9-0.9,0.9H41.9c-0.497,0-0.9-0.403-0.9-0.9v-2.7  c0-0.497,0.403-0.9,0.9-0.9H44v-6H8V8h84v6H56z"/><text x="0" y="115" fill="#000000" font-size="5px" font-weight="bold" font-family="'Helvetica Neue', Helvetica, Arial-Unicode, Arial, Sans-serif">Created by Ayub Irawan</text><text x="0" y="120" fill="#000000" font-size="5px" font-weight="bold" font-family="'Helvetica Neue', Helvetica, Arial-Unicode, Arial, Sans-serif">from the Noun Project</text></svg>